<svg width="12" height="11" viewBox="0 0 12 11" fill="none" xmlns="http://www.w3.org/2000/svg">
<path d="M6.44854 0.278499C6.40254 0.183999 6.32454 0.102499 6.22154 0.0514989C5.97404 -0.0705012 5.67404 0.0309989 5.55204 0.278499L4.12304 3.173L0.927542 3.6405C0.823542 3.655 0.722042 3.704 0.642042 3.786C0.449042 3.984 0.453542 4.3005 0.651042 4.493L2.96254 6.7445L2.41704 9.9255C2.39904 10.029 2.41404 10.141 2.46754 10.2425C2.59604 10.487 2.89854 10.581 3.14304 10.4525L6.00004 8.95L8.85754 10.4525C8.95054 10.502 9.06154 10.522 9.17454 10.503C9.44654 10.4565 9.62954 10.198 9.58304 9.9255L9.03754 6.7445L11.349 4.493C11.4245 4.42 11.4785 4.321 11.495 4.207C11.535 3.934 11.346 3.68 11.0725 3.64L7.87754 3.173L6.44854 0.278499ZM6.00004 1.6295L7.09654 3.8515C7.17204 4.004 7.31454 4.101 7.47254 4.125L9.92554 4.4835L8.15104 6.212C8.02904 6.331 7.98054 6.4965 8.00704 6.6545L8.42554 9.096L6.23254 7.9425C6.08204 7.8635 5.90904 7.8685 5.76704 7.9425L3.57404 9.096L3.99254 6.6545C4.02154 6.4865 3.96304 6.324 3.84854 6.212L2.07404 4.4835L4.52754 4.1245C4.69554 4.1 4.83204 3.9945 4.90354 3.8515L6.00004 1.6295Z" fill="url(#paint0_linear)"/>
<defs>
<linearGradient id="paint0_linear" x1="6.00006" y1="4.5" x2="12.0001" y2="4.5" gradientUnits="userSpaceOnUse">
<stop stop-color="#EC1D2E"/>
<stop stop-color="#CFCFCF"/>
<stop offset="1" stop-color="#CFCFCF"/>
</linearGradient>
</defs>
</svg>
