<svg width="14" height="12" viewBox="0 0 14 12" fill="none" xmlns="http://www.w3.org/2000/svg">
<path d="M1.75016 3.62058L6.66591 7.06167C6.86425 7.19875 7.12966 7.20517 7.335 7.06167L12.2502 3.62058V9.5C12.2502 9.57817 12.2344 9.65225 12.2064 9.71992C12.1767 9.79108 12.1329 9.85642 12.0781 9.91125C12.0232 9.96608 11.9579 10.0098 11.8867 10.0396C11.8191 10.0676 11.745 10.0833 11.6668 10.0833H2.3335C2.25533 10.0833 2.18125 10.0676 2.11358 10.0396C2.04241 10.0098 1.97708 9.96608 1.92225 9.91125C1.86741 9.85642 1.82366 9.79108 1.79391 9.71992C1.76591 9.65225 1.75016 9.57817 1.75016 9.5V3.62058ZM0.583496 2.507V9.5C0.583496 9.73508 0.630746 9.96083 0.715913 10.1667C0.805163 10.382 0.935829 10.5751 1.09683 10.7367C1.25783 10.8983 1.4515 11.0289 1.66675 11.1176C1.87266 11.2028 2.09841 11.25 2.3335 11.25H11.6668C11.9019 11.25 12.1277 11.2028 12.3336 11.1176C12.5488 11.0283 12.7419 10.8977 12.9035 10.7367C13.0651 10.5757 13.1957 10.382 13.2844 10.1667C13.3696 9.96083 13.4168 9.73508 13.4168 9.5V2.5C13.4168 2.4965 13.4168 2.493 13.4168 2.49008C13.4157 2.2585 13.3684 2.03683 13.2844 1.83383C13.1952 1.61858 13.0645 1.4255 12.9035 1.26392C12.7425 1.10233 12.5488 0.971667 12.3336 0.883C12.1277 0.79725 11.9019 0.75 11.6668 0.75H2.3335C2.09841 0.75 1.87266 0.79725 1.66675 0.882417C1.4515 0.971667 1.25841 1.10233 1.09683 1.26333C0.935246 1.42433 0.805163 1.618 0.715913 1.83325C0.631913 2.03625 0.584663 2.2585 0.583496 2.49008C0.583496 2.493 0.583496 2.4965 0.583496 2.5V2.507ZM12.1883 2.23983L7.00016 5.87108L1.812 2.23983C1.84 2.18442 1.87733 2.13308 1.92166 2.08875C1.97708 2.03333 2.04183 1.98958 2.11358 1.96042C2.18125 1.93242 2.25533 1.91667 2.3335 1.91667H11.6668C11.745 1.91667 11.8191 1.93242 11.8867 1.96042C11.9579 1.99017 12.0232 2.03392 12.0781 2.08875C12.1224 2.13308 12.1597 2.18442 12.1877 2.23983H12.1883Z" fill="white"/>
</svg>
