<svg width="12" height="14" viewBox="0 0 12 14" fill="white" xmlns="http://www.w3.org/2000/svg">
<path d="M11.8332 5.83333C11.8332 5.04408 11.6763 4.29042 11.391 3.60267C11.0953 2.88867 10.6618 2.24642 10.1246 1.70858C9.58734 1.17133 8.94509 0.737917 8.2305 0.442167C7.54275 0.156917 6.78909 0 5.99984 0C5.21059 0 4.45692 0.156917 3.76917 0.442167C3.05459 0.737917 2.41234 1.17133 1.87509 1.70858C1.33784 2.24583 0.904421 2.88808 0.608671 3.60267C0.323421 4.29042 0.166504 5.04408 0.166504 5.83333C0.166504 6.16525 0.197421 6.49133 0.254004 6.811C0.413837 7.714 0.778421 8.56333 1.23517 9.331C1.73625 10.1727 2.35692 10.9317 2.96709 11.5739C3.47867 12.1123 3.98792 12.5743 4.42309 12.9407C4.73109 13.1997 5.00292 13.412 5.21409 13.5701C5.34359 13.6675 5.45092 13.7445 5.52909 13.7999C5.62067 13.8647 5.67667 13.902 5.67667 13.902C5.86975 14.0286 6.12292 14.0356 6.32359 13.902C6.32359 13.902 6.38017 13.8641 6.47117 13.7999C6.54934 13.7445 6.65609 13.6675 6.78617 13.5701C6.99734 13.412 7.26917 13.1997 7.57717 12.9407C8.01234 12.5743 8.52159 12.1123 9.03317 11.5739C9.64334 10.9317 10.264 10.1727 10.7651 9.331C11.2218 8.56333 11.5864 7.714 11.7463 6.811C11.8023 6.49133 11.8332 6.16525 11.8332 5.83333ZM10.6665 5.83333C10.6665 6.09233 10.6426 6.35075 10.5971 6.608C10.4682 7.33717 10.1672 8.0535 9.76175 8.73483C9.31725 9.4815 8.75609 10.1716 8.18675 10.7707C7.71134 11.2712 7.23475 11.7034 6.82525 12.0482C6.53592 12.2914 6.281 12.4903 6.08559 12.6373C6.05525 12.6601 6.02667 12.6811 5.99984 12.7015C5.97242 12.6817 5.94384 12.6601 5.91409 12.6373C5.71809 12.4903 5.46317 12.2914 5.17442 12.0482C4.76492 11.7034 4.28892 11.2712 3.81292 10.7707C3.24359 10.1716 2.68242 9.4815 2.23792 8.73483C1.8325 8.0535 1.5315 7.33717 1.40259 6.608C1.35709 6.35075 1.33317 6.09233 1.33317 5.83333C1.33317 5.20042 1.45917 4.59783 1.68609 4.04892C1.92292 3.47842 2.26942 2.96392 2.69992 2.53342C3.13042 2.10292 3.64492 1.75583 4.21542 1.51958C4.76434 1.29267 5.36692 1.16667 5.99984 1.16667C6.63275 1.16667 7.23534 1.29267 7.78425 1.51958C8.35475 1.75583 8.86867 2.10233 9.29975 2.53342C9.73084 2.9645 10.0773 3.47842 10.3136 4.04892C10.5405 4.59783 10.6665 5.20042 10.6665 5.83333ZM8.33317 5.83333C8.33317 5.51833 8.27017 5.21675 8.15642 4.94083C8.038 4.655 7.86475 4.39833 7.65009 4.18367C7.43542 3.969 7.17817 3.79517 6.89234 3.67675C6.61642 3.563 6.31484 3.5 5.99984 3.5C5.68484 3.5 5.38325 3.563 5.10734 3.67675C4.8215 3.79517 4.56484 3.96842 4.35017 4.18308C4.1355 4.39775 3.96167 4.655 3.84325 4.94083C3.7295 5.21675 3.6665 5.51833 3.6665 5.83333C3.6665 6.14833 3.7295 6.44992 3.84325 6.72583C3.96167 7.01167 4.13492 7.26833 4.34959 7.483C4.56425 7.69767 4.82092 7.87092 5.10675 7.98933C5.38325 8.10367 5.68484 8.16667 5.99984 8.16667C6.31484 8.16667 6.61642 8.10367 6.89234 7.98992C7.17817 7.8715 7.43484 7.69825 7.6495 7.48358C7.86417 7.26892 8.03742 7.01225 8.15584 6.72642C8.27017 6.44992 8.33317 6.14833 8.33317 5.83333ZM7.1665 5.83333C7.1665 5.99258 7.135 6.1425 7.07842 6.27958C7.0195 6.42192 6.93259 6.55025 6.82467 6.65875C6.71675 6.76725 6.58784 6.85358 6.4455 6.9125C6.309 6.9685 6.15909 7 5.99984 7C5.84059 7 5.69067 6.9685 5.55359 6.91192C5.41125 6.853 5.28292 6.76608 5.17442 6.65817C5.06592 6.55025 4.97959 6.42133 4.92067 6.279C4.86467 6.1425 4.83317 5.99258 4.83317 5.83333C4.83317 5.67408 4.86467 5.52417 4.92125 5.38708C4.98017 5.24475 5.06709 5.11642 5.175 5.00792C5.28292 4.89942 5.41184 4.81308 5.55417 4.75417C5.69067 4.69817 5.84059 4.66667 5.99984 4.66667C6.15909 4.66667 6.309 4.69817 6.44609 4.75475C6.58842 4.81367 6.71675 4.90058 6.82525 5.0085C6.93375 5.11642 7.02009 5.24533 7.079 5.38767C7.135 5.52417 7.1665 5.67408 7.1665 5.83333Z" fill="white"/>
</svg>
