<svg width="14" height="14" viewBox="0 0 14 14" fill="none" xmlns="http://www.w3.org/2000/svg">
<path d="M13.4168 9.87002C13.4214 9.67168 13.3876 9.46635 13.3223 9.27443C13.2546 9.07785 13.1537 8.89585 13.0242 8.7366C12.8877 8.5686 12.7203 8.42568 12.5278 8.3166C12.3417 8.2116 12.134 8.13927 11.9013 8.1066C11.4346 8.04943 10.9125 7.92343 10.3928 7.72977C10.1402 7.63702 9.87184 7.6026 9.60875 7.62827C9.41275 7.64752 9.21909 7.69943 9.03709 7.7846C8.86034 7.86743 8.69525 7.98118 8.54825 8.12702L8.12825 8.54702C7.09575 7.89543 6.16825 6.99127 5.45484 5.8701L5.87834 5.4466C6.06617 5.2541 6.20675 5.0231 6.29075 4.77226C6.35317 4.5856 6.38467 4.38726 6.38117 4.18601C6.37767 3.9906 6.34092 3.79401 6.268 3.59918C6.09942 3.15993 5.96584 2.64018 5.89234 2.08543C5.86259 1.87951 5.79725 1.68585 5.70334 1.50968C5.6065 1.33001 5.47992 1.16843 5.33 1.0331C5.17017 0.889015 4.9835 0.774098 4.77817 0.696515C4.57984 0.621265 4.36459 0.581015 4.14759 0.583348H2.39992C2.34859 0.583348 2.29375 0.585681 2.24067 0.590348C2.00559 0.611348 1.7845 0.679015 1.58617 0.782848C1.38025 0.890765 1.20059 1.03776 1.05475 1.21218C0.90892 1.3866 0.79692 1.59076 0.727504 1.81243C0.661004 2.02651 0.63417 2.25576 0.655754 2.49493C0.830754 4.28926 1.452 6.13668 2.53175 7.80443C3.40792 9.21202 4.65975 10.5012 6.20559 11.4829C7.70359 12.4728 9.52125 13.1524 11.5058 13.3677C11.5594 13.3729 11.6172 13.3753 11.6738 13.3753C11.91 13.3741 12.1358 13.3263 12.3428 13.2399C12.5569 13.1501 12.7488 13.0194 12.9093 12.8578C13.0697 12.6963 13.1986 12.5032 13.2867 12.2885C13.3718 12.0814 13.4179 11.8545 13.4168 11.6212V9.87002ZM12.2501 9.87002V11.62C12.2507 11.7023 12.2349 11.7775 12.2069 11.8458C12.1778 11.9169 12.1346 11.9817 12.0809 12.0359C12.0273 12.0902 11.9625 12.1339 11.8919 12.1637C11.8243 12.1923 11.749 12.208 11.6691 12.2086C11.6481 12.2086 11.6294 12.2074 11.6178 12.2063C9.83275 12.012 8.19184 11.3966 6.84959 10.5093C5.43325 9.60927 4.30684 8.44552 3.52342 7.18785C2.5335 5.65951 1.97467 3.9906 1.81775 2.38235C1.81075 2.30651 1.82009 2.23068 1.84167 2.16068C1.86442 2.0866 1.90175 2.01835 1.95075 1.95943C1.99975 1.90051 2.05984 1.85151 2.12809 1.81593C2.19342 1.7821 2.26634 1.75935 2.34625 1.75235C2.36609 1.7506 2.38359 1.75001 2.39525 1.75001H4.14759C4.22925 1.74943 4.29984 1.76285 4.36517 1.78735C4.43284 1.81301 4.49467 1.85093 4.54834 1.89935C4.5985 1.94485 4.64109 1.9991 4.67375 2.05976C4.70525 2.11868 4.72742 2.18401 4.73734 2.25401C4.81959 2.87935 4.97534 3.48951 5.17834 4.0186C5.20109 4.07985 5.21334 4.1446 5.21392 4.20818C5.21509 4.2741 5.20459 4.33943 5.18359 4.40243C5.155 4.48701 5.10717 4.56635 5.04242 4.63285L4.30684 5.36843C4.11784 5.55743 4.08575 5.84327 4.21234 6.06902C5.13634 7.6936 6.45175 8.9606 7.93459 9.78952C8.16617 9.91901 8.44909 9.87352 8.63167 9.69268L9.3725 8.95185C9.41975 8.90518 9.474 8.86785 9.53175 8.84102C9.59125 8.81302 9.65542 8.79552 9.72134 8.7891C9.81 8.78035 9.90217 8.79202 9.98909 8.8241C10.5853 9.04635 11.1966 9.1951 11.7589 9.26393C11.8237 9.27326 11.8925 9.29718 11.9532 9.3316C12.0162 9.36718 12.0722 9.41502 12.1183 9.47102C12.162 9.52468 12.1958 9.58593 12.2186 9.65185C12.2408 9.71601 12.2518 9.78485 12.2501 9.86885V9.87002Z" fill="white"/>
</svg>
